<svg version="1.2" xmlns="http://www.w3.org/2000/svg" viewBox="0 0 2048 2048" width="2048" height="2048">
	<title>foxieLogosvg</title>
	<style>
		.s0 { fill: #000000 } 
	</style>
	<filter id="f0">
		<feFlood flood-color="#ffffff" flood-opacity="1" />
		<feBlend mode="normal" in2="SourceGraphic"/>
		<feComposite in2="SourceAlpha" operator="in" />
	</filter>
	<g id="Layer" filter="url(#f0)">
		<path id="Layer" fill-rule="evenodd" class="s0" d="m1007.5 443.5c5.5 2 8.6 6.1 15 20.3 12.8 28.3 26.7 77.8 30.5 108.2 0.6 5.2 2.2 17.3 3.6 26.9 1.3 9.5 2.4 18.8 2.4 20.5 0 2.1-2.1 6.5-6.4 13.4-13 20.7-23.4 44.5-28.1 63.7-4.9 20-3.1 26.5 11.7 42.1 10 10.4 9.8 10.6-4.9 4.1-12.1-5.5-24.8-10.6-36.8-14.9-19.3-7-38.6-13.8-51.8-18.4-15.3-5.3-23.3-9.2-35.3-17.2-9.9-6.7-12.8-9.5-20.4-19.7-9.3-12.5-15-26.7-15-37.2 0-12.8 7.1-37.6 15.7-54.7 11.5-22.9 35.4-55.2 76.2-103.1 18.4-21.6 27.7-31 33.2-33.5 5.2-2.3 5.3-2.3 10.4-0.5zm-14.2 51.2c-20.4 23-38.6 55.9-48.2 86.8-7.8 25.2-5.4 36.1 12 54.8 4.1 4.5 8.3 9.3 9.2 10.7 1.7 2.4 1.7 2.3 1.7-4.2 0-8 2.3-25.9 5-39.8 2.7-13.7 5.8-25.6 14.9-58 4.3-15.1 9-33.6 10.5-41 1.5-7.4 3.1-14.5 3.6-15.8 0.9-2 0.8-2.2-0.9-1.3-1 0.6-4.5 4.1-7.8 7.8z"/>
		<path id="Layer" class="s0" d="m1213.5 478.8c5.3 3.3 5.8 4.6 5.2 12.5-0.3 3.9-4.1 25.4-8.5 47.7-13.6 68.5-14.5 74.3-14.6 96.7-0.1 9-0.2 16.3-0.4 16.3-0.1 0-2.6-1.8-5.4-4.1-6.7-5.3-30.3-19.3-39.8-23.7-9.8-4.4-14-6.2-14-5.8 0 0.2 3 2.3 6.6 4.5 7.3 4.6 28.4 20.3 40.6 30.3 22.8 18.7 49.9 45.4 64.6 63.7 20.7 25.7 29.1 42.1 37.2 72.7 9.1 34.5 17.7 51.2 32 61.9 5.5 4.1 36.2 23.5 66 41.6 8.5 5.1 22.7 13.8 31.5 19.1 8.8 5.4 23.1 13.7 31.7 18.5 8.7 4.9 15.7 9 15.8 9.3 0 0.3-2.4 2-5.3 3.8l-5.2 3.3 16-0.6c14.6-0.6 16.3-0.5 19.5 1.3 1.9 1.1 4.3 3.3 5.3 5 3.5 6-0.9 13.1-16.6 26.8-11 9.6-19.1 15.4-21.6 15.4-1.9-0.1-13.9-13.7-15.7-17.8-0.6-1.5-1.6-7-2.2-12.1-0.8-6.3-1.7-10-2.9-11.4-2.4-2.7-28.5-19.7-70.3-45.7-26.2-16.3-61-39-67.4-43.9-15.1-11.8-23.3-26.2-30.9-55.1-5-18.6-10-31.2-18.3-46.3-24.6-44.6-82.8-96.7-148.7-132.9-12.3-6.8-17.6-11.1-21.2-17.2-2.5-4.2-7.8-19.5-8.9-25.4-0.5-3.1-0.4-3.3 1.6-2.6 1.3 0.4 12.2 0.8 24.3 0.9 12.1 0.1 22.9 0.5 24 0.9 1.1 0.3 0.6 0-1.2-0.9-5.1-2.3-19.5-4.5-35.6-5.4-8.1-0.4-14.9-1-15-1.2-1.1-1.3-3.8-17.2-3.1-17.8 0.5-0.4 4.3-2 8.4-3.6 12.3-4.6 29.1-13.4 53.3-27.9 26.7-15.9 48.4-29.6 65.2-41.2 10.3-7.1 18.1-11.4 20.4-11.4 0.3 0 1.9 0.8 3.6 1.8z"/>
		<path id="Layer" fill-rule="evenodd" class="s0" d="m790.6 726.2c-1 0.7-11.3 7.6-23 15.3-38.1 25.3-61.3 43.7-89.9 71.5-22.1 21.4-37 38.9-50.4 59-25.3 38.1-39.7 76.2-43.7 115.5l-0.6 6 7.3-13c23.7-42.3 70.4-98.1 118.5-141.6 29-26.3 72.2-60.7 74.4-59.3 0.6 0.4 0.8 0.3 0.4-0.4-0.6-1.1 4.3-5.3 10.9-9.2 2.2-1.3 9.6-6.7 16.5-11.9 19.8-15 20.7-15.1 2.3-0.4-17.8 14.3-45.8 39.9-55.6 50.8-39.7 44.5-61.7 92.5-69.1 151.3-1.1 8.5-1.6 20.8-1.6 39.3 0 25 0.8 32.7 2.4 22.8 0.9-5.8 6.4-19.6 9.9-24.9 1.6-2.5 2.6-3.6 2.2-2.6-2.5 8-9.5 75.8-9.5 93 0 11.5 1.9 32.7 3 33.9 0.5 0.5 1.5-2.3 2.4-6.2 7.4-32.6 27.5-65.9 58.4-96.8 34.8-34.8 73.9-57.6 121.9-71.2 18.7-5.3 38.7-9.2 68.8-13.6 13.7-2 31.5-4.9 39.5-6.5 37.8-7.5 56.8-9.6 76-8.6 11.1 0.6 27.5 2.6 33.2 4.1 5 1.3 3-0.2-3.5-2.5-3.4-1.3-10.2-4.3-15-6.7-13.2-6.5-35-16.1-45.7-20-30.3-11.1-67.8-20.6-91-23l-7.5-0.8 9.5-0.7c21.9-1.7 61.6 1.3 87.5 6.7 35.2 7.3 78.7 28 113.2 53.9 4.8 3.6 10.6 7.5 12.8 8.5 2.2 1.1 12.5 4.3 23 7 10.4 2.8 27.1 7.3 37 10.1 37.4 10.5 56.4 15.3 68 17.5l12 2.2-7.5 0.7c-9 1-45.8 0.9-50.8 0-2.5-0.5-3.3-0.4-2.8 0.5 0.9 1.4 4.2 2.8 21.1 9.1 7.1 2.7 17.9 6.9 24 9.4 35.4 14.6 86.8 24.2 111 20.7 9.8-1.4 27.8-6.6 32.2-9.3 6.3-3.7 3.3-0.8-3.7 3.7-10 6.4-19.9 11.2-29.8 14.4-14.4 4.7-21.8 5.6-44.2 5.5-17.4-0.1-23.8-0.6-42-3.3-28.4-4.2-46.9-5-117.5-5.3-57.9-0.3-59.2-0.3-67.5 1.9-28 7.2-50.2 18.4-69.9 35.1-10.4 8.8-26.1 30-26.1 35.1 0 3.9 10.5 68.4 13.9 85.6 12.7 63.7 27.4 114.4 45.8 156.9 12.7 29.6 48.2 102.1 54.7 112 2.5 3.8 4.6 7.1 4.6 7.4 0 1-7.8-9.4-9.4-12.6-1.8-3.4-2.9-4.3-1.9-1.5 0.3 1-1.8-1.4-4.7-5.2-31.5-41.7-94.2-98.5-133.5-121-2.8-1.5-6.1-3.5-7.5-4.4-1.4-0.8 2.9 4.1 9.5 11 23.2 24 40.8 45.8 51.7 64.1 26.1 43.9 40.7 84.7 50.3 139.8 4.6 26.2 5.5 30.9 7 35.2 0.8 2.1 1.2 3.8 1 3.8-0.2 0-3.5-6-7.2-13.3-12.9-24.9-33.9-55.6-53.3-78.1-21.5-24.8-52.2-55.7-73-73.1-58-48.7-76.5-68.6-93.3-100.5-27.6-52.5-37-124.1-22-168 11.8-34.7 35.6-64.2 69.8-86.9 26.9-17.8 56.7-29.7 89.5-35.8 15-2.8 61.6-2.5 80.4 0.5 7.7 1.2 14.1 2 14.3 1.8 0.6-0.5-15.4-6.2-22.7-8.1-20.7-5.4-58.3-7.3-77.2-3.9-5.1 0.9-10.6 1.6-12.1 1.6-1.5 0-4.3 0.6-6.2 1.4-5.6 2.3-4 0.7 2.4-2.5 8.7-4.4 28.9-10.8 42.6-13.6 23.4-4.7 61.5-5.7 75.4-2 6.5 1.7 6 1-1.6-2.2-20.5-8.4-63.3-17.4-103.3-21.9-18-1.9-54-1.5-67.5 1-26.8 4.8-50.4 14.4-75.2 30.9-38.7 25.6-69.8 63.3-82.1 99.7-10.2 30.2-10.6 76.6-0.8 108.5 10.6 35.1 28 59.3 82.9 115.2 39.3 40.1 52.9 56.3 77.5 92.5 23.3 34 30.6 46.7 40.5 69.9 9 21 16.6 50.2 22.2 84.4 2.4 14.8 6.5 38.2 8 45.1 0.3 1.6-1.1-1.4-3.3-6.6-6.3-15.3-8.8-20.5-14.8-30.8-28.4-48.4-65-88.6-114.4-125.7-13.5-10.2-58.2-45.9-68-54.3-9.7-8.4-28.6-26.7-42.5-41.2-22.4-23.2-37.4-43.2-59.5-78.8-3.5-5.6-6.5-10-6.8-9.7-0.3 0.2 0 1 0.5 1.7 0.5 0.7 2.5 5.1 4.3 9.8 7.5 19.1 27.5 56.1 41 76 14.5 21.3 43.8 52.8 64.3 69.2 11.4 9.1 46 33.4 51.4 36.2 1.8 0.9 3.3 1.9 3.3 2.1 0 1.4-23.8-10.1-48.5-23.5-72.1-38.9-123.6-77.1-168.8-125.2-31.5-33.6-56.2-68.6-76.6-108.8-27.3-53.9-39.7-104.8-39.5-163 0.2-41 7.5-74.6 24.3-111.7 33.5-74.2 91.2-127.6 192.1-177.8 13.5-6.7 26.3-12.8 28.5-13.5 2.2-0.7 6.2-2.3 9-3.6 2.7-1.4 4.2-1.9 3.1-1.2zm-11.1 56.8c-1 1.1-1.6 2-1.3 2 0.3 0 1.3-0.9 2.3-2 1-1.1 1.6-2 1.3-2-0.3 0-1.3 0.9-2.3 2zm-130.5 189c-5.8 10.1-10.3 19.4-15.4 32.2-7.6 19.2-9.1 24.9-13.1 47.7-2.8 16.1-2.8 16.1-1.4 14.1 1.1-1.5 1.1-1.2-0.5 12-0.6 4.4-0.6 4.4 0.5 1 0.5-1.9 3.2-10.7 5.9-19.5 2.7-8.8 6.3-22.8 8-31 6.1-29.2 9.5-40.2 16.9-55.1 6.2-12.3 5.8-12.8-0.9-1.4z"/>
		<path id="Layer" fill-rule="evenodd" class="s0" d="m1107.8 796.1c47 2.1 100.6 11.8 111.2 20.2 5.3 4.2 10.9 15.6 20 40.8 7.6 21.2 12.8 31.3 21.9 42.7 8.9 11.2 9.2 11.2-9.4 0.1-6.1-3.6-21.6-12.6-34.5-19.9-12.9-7.3-34.1-19.4-47-26.8-28-16.2-53.1-28.5-69.4-34.2-20.9-7.1-57.2-15.4-84.6-19.1l-9.5-1.3 7-0.7c8.9-0.9 60.3-2.9 69.2-2.7 3.8 0 15 0.5 25.1 0.9zm78.3 35.6c2 5.4 12.2 24.3 13.9 25.8 1.3 1.2 2.3 1.3 4.3 0.6 1.5-0.6 6.7-2 11.7-3.1 4.9-1.2 9-2.6 9-3.1 0-3.3-15.8-15.5-24.5-19-4.2-1.6-11.7-3.7-13.7-3.8-1.5-0.1-1.6 0.3-0.7 2.6z"/>
	</g>
</svg>