<svg version="1.2" xmlns="http://www.w3.org/2000/svg" viewBox="0 0 2048 2048" width="2048" height="2048">
	<title>foxieLogo</title>
	<style>
		.s0 { fill: #000000 } 
	</style>
	<filter id="f0">
		<feFlood flood-color="#ffffff" flood-opacity="1" />
		<feBlend mode="normal" in2="SourceGraphic"/>
		<feComposite in2="SourceAlpha" operator="in" />
	</filter>
	<g id="Layer" filter="url(#f0)">
		<path id="Layer" fill-rule="evenodd" class="s0" d="m1014.1 25.2c9.4 3.5 14.8 10.5 25.8 34.9 21.9 48.6 45.8 133.6 52.4 185.9 1 8.9 3.7 29.7 6.1 46.2 2.3 16.3 4.2 32.3 4.2 35.2 0 3.6-3.6 11.2-11 23-22.4 35.6-40.2 76.5-48.3 109.4-8.4 34.4-5.3 45.6 20.1 72.4 17.2 17.8 16.8 18.2-8.4 7-20.8-9.4-42.6-18.2-63.2-25.6-33.2-12-66.3-23.7-89-31.6-26.3-9.1-40.1-15.8-60.7-29.5-17-11.6-22-16.4-35-33.9-16-21.5-25.8-45.9-25.8-63.9 0-22 12.2-64.6 27-94 19.7-39.3 60.8-94.8 130.9-177.1 31.6-37.1 47.6-53.2 57-57.5 9-4 9.1-4 17.9-0.9zm-24.4 88c-35 39.5-66.3 96-82.8 149.1-13.4 43.3-9.3 62 20.6 94.1 7.1 7.8 14.3 16 15.8 18.4 2.9 4.1 2.9 4 2.9-7.2 0-13.8 4-44.5 8.6-68.4 4.7-23.5 10-44 25.6-99.6 7.4-26 15.5-57.7 18.1-70.4 2.5-12.8 5.3-25 6.1-27.2 1.6-3.4 1.4-3.8-1.5-2.2-1.7 1-7.7 7-13.4 13.4z"/>
		<path id="Layer" class="s0" d="m1368 85.9c9.1 5.6 9.9 7.9 8.9 21.4-0.5 6.7-7 43.7-14.6 82-23.4 117.6-24.9 127.6-25.1 166.1-0.2 15.5-0.3 28-0.7 28-0.1 0-4.4-3.1-9.2-7-11.6-9.2-52.1-33.2-68.4-40.8-16.8-7.5-24.1-10.6-24.1-9.9 0 0.3 5.2 3.9 11.4 7.7 12.5 7.9 48.8 34.9 69.7 52.1 39.2 32.1 85.7 77.9 111 109.4 35.6 44.1 50 72.3 63.9 124.9 15.6 59.2 30.4 87.9 55 106.3 9.4 7 62.2 40.4 113.3 71.5 14.6 8.7 39 23.7 54.2 32.8 15.1 9.3 39.6 23.5 54.4 31.8 15 8.4 27 15.4 27.2 15.9 0 0.6-4.2 3.5-9.1 6.6l-9 5.6 27.5-1c25.1-1 28-0.9 33.5 2.2 3.3 1.9 7.4 5.7 9.1 8.6 6 10.3-1.5 22.5-28.5 46.1-18.9 16.5-32.8 26.4-37.1 26.4-3.3-0.2-23.9-23.5-27-30.6-1-2.5-2.7-12-3.8-20.7-1.3-10.9-2.9-17.2-4.9-19.6-4.2-4.7-49-33.9-120.8-78.5-45-28-104.8-67-115.8-75.4-25.9-20.3-40-45.1-53.1-94.7-8.6-32-17.2-53.6-31.4-79.5-42.3-76.7-142.3-166.2-255.5-228.3-21.1-11.7-30.2-19.1-36.4-29.6-4.3-7.2-13.4-33.5-15.3-43.6-0.8-5.3-0.7-5.7 2.8-4.5 2.2 0.7 20.9 1.4 41.7 1.6 20.8 0.1 39.4 0.8 41.3 1.5 1.8 0.5 1 0-2.1-1.5-8.8-4-33.5-7.8-61.2-9.3-13.9-0.7-25.6-1.7-25.7-2.1-1.9-2.2-6.6-29.5-5.4-30.6 0.9-0.6 7.4-3.4 14.5-6.1 21.1-7.9 50-23.1 91.5-48 45.9-27.3 83.2-50.8 112-70.7 17.7-12.2 31.1-19.6 35.1-19.6 0.5 0 3.3 1.3 6.2 3.1z"/>
		<path id="Layer" fill-rule="evenodd" class="s0" d="m641.5 510.9c-1.7 1.2-19.4 13-39.5 26.2-65.5 43.5-105.3 75.1-154.5 122.9-37.9 36.7-63.5 66.8-86.5 101.3-43.5 65.5-68.2 130.9-75.1 198.4l-1 10.3 12.5-22.3c40.7-72.7 120.9-168.5 203.6-243.2 49.8-45.2 124-104.3 127.8-101.9 1 0.7 1.4 0.5 0.7-0.7-1.1-1.9 7.4-9.1 18.7-15.8 3.8-2.2 16.5-11.5 28.3-20.4 34-25.8 35.6-26 4-0.7-30.6 24.5-78.7 68.5-95.5 87.2-68.2 76.5-106 158.9-118.7 260-1.9 14.6-2.8 35.7-2.8 67.5 0 42.9 1.4 56.1 4.1 39.1 1.6-9.9 11-33.6 17-42.7 2.8-4.3 4.5-6.2 3.8-4.5-4.3 13.7-16.3 130.2-16.3 159.7 0 19.8 3.3 56.2 5.2 58.3 0.8 0.8 2.5-4 4.1-10.7 12.7-56 47.2-113.2 100.3-166.3 59.8-59.7 127-98.9 209.4-122.3 32.1-9.1 66.5-15.8 118.2-23.3 23.5-3.5 54.1-8.4 67.9-11.2 64.9-12.9 97.5-16.5 130.5-14.8 19.1 1.1 47.3 4.5 57 7.1 8.6 2.2 5.2-0.4-6-4.3-5.8-2.3-17.5-7.4-25.7-11.5-22.7-11.2-60.2-27.7-78.5-34.4-52.1-19.1-116.5-35.4-156.4-39.5l-12.8-1.4 16.3-1.2c37.6-2.9 105.8 2.3 150.3 11.5 60.5 12.6 135.2 48.1 194.4 92.6 8.3 6.2 18.3 12.9 22 14.6 3.8 1.9 21.5 7.4 39.5 12.1 17.9 4.8 46.6 12.5 63.6 17.3 64.3 18 96.9 26.3 116.8 30.1l20.6 3.7-12.8 1.2c-15.5 1.8-78.7 1.6-87.3 0-4.3-0.8-5.7-0.6-4.8 0.9 1.5 2.4 7.2 4.8 36.2 15.6 12.2 4.7 30.8 11.9 41.2 16.2 60.9 25.1 149.2 41.6 190.7 35.5 16.9-2.4 47.8-11.3 55.3-15.9 10.9-6.4 5.7-1.4-6.3 6.3-17.2 11-34.2 19.3-51.2 24.8-24.7 8-37.5 9.6-75.9 9.4-29.9-0.2-40.9-1-72.2-5.7-48.8-7.2-80.5-8.5-201.8-9.1-99.5-0.5-101.7-0.5-116 3.3-48.1 12.4-86.2 31.6-120.1 60.3-17.8 15.1-44.8 51.5-44.8 60.3 0 6.7 18 117.5 23.9 147 21.8 109.5 47 196.6 78.7 269.6 21.8 50.8 82.8 175.4 93.9 192.4 4.3 6.5 7.9 12.2 7.9 12.7 0 1.7-13.4-16.2-16.1-21.7-3.1-5.8-5-7.3-3.3-2.5 0.5 1.7-3.1-2.4-8.1-9-54.1-71.6-161.8-169.2-229.3-207.8-4.8-2.6-10.5-6-12.9-7.6-2.4-1.4 5 7.1 16.3 18.9 39.9 41.2 70.1 78.7 88.9 110.1 44.8 75.4 69.9 145.5 86.4 240.2 7.9 45 9.4 53.1 12 60.5 1.4 3.6 2 6.5 1.7 6.5-0.3 0-6-10.3-12.4-22.9-22.1-42.7-58.2-95.5-91.5-134.1-37-42.6-89.7-95.7-125.4-125.6-99.7-83.7-131.4-117.9-160.3-172.7-47.4-90.1-63.6-213.1-37.8-288.6 20.3-59.6 61.2-110.2 119.9-149.2 46.2-30.6 97.4-51.1 153.8-61.5 25.7-4.8 105.8-4.3 138.1 0.8 13.2 2.1 24.2 3.5 24.5 3.1 1.1-0.8-26.4-10.6-39-13.9-35.5-9.3-100.1-12.5-132.6-6.7-8.7 1.5-18.2 2.8-20.8 2.8-2.5 0-7.3 1-10.6 2.4-9.6 3.9-6.9 1.2 4.1-4.3 15-7.6 49.7-18.6 73.2-23.4 40.2-8.1 105.6-9.8 129.5-3.4 11.2 2.9 10.3 1.7-2.7-3.8-35.2-14.4-108.8-29.9-177.5-37.6-30.9-3.3-92.7-2.6-115.9 1.7-46.1 8.2-86.6 24.7-129.2 53.1-66.5 43.9-119.9 108.7-141.1 171.2-17.5 51.9-18.2 131.6-1.3 186.4 18.2 60.3 48.1 101.9 142.4 197.9 67.5 68.9 90.9 96.7 133.1 158.9 40 58.4 52.6 80.2 69.6 120.1 15.4 36.1 28.5 86.2 38.1 145 4.1 25.4 11.2 65.6 13.8 77.5 0.5 2.7-1.9-2.4-5.7-11.4-10.8-26.3-15.1-35.2-25.4-52.9-48.8-83.1-111.7-152.2-196.6-215.9-23.1-17.5-99.9-78.9-116.8-93.3-16.6-14.4-49.1-45.9-73-70.8-38.5-39.8-64.2-74.2-102.2-135.3-6-9.7-11.2-17.2-11.7-16.7-0.5 0.3 0 1.7 0.9 2.9 0.8 1.2 4.3 8.8 7.4 16.8 12.9 32.9 47.2 96.4 70.4 130.6 24.9 36.6 75.3 90.7 110.5 118.9 19.6 15.6 79 57.4 88.3 62.2 3.1 1.5 5.6 3.2 5.6 3.6 0 2.4-40.9-17.4-83.3-40.4-123.8-66.8-212.3-132.4-290-215.1-54.1-57.7-96.5-117.8-131.5-186.9-46.9-92.6-68.2-180-67.9-280 0.3-70.4 12.9-128.1 41.7-191.9 57.6-127.4 156.7-219.2 330-305.4 23.2-11.5 45.2-22 49-23.2 3.8-1.2 10.7-3.9 15.5-6.2 4.6-2.4 7.2-3.2 5.3-2zm-19.1 97.5c-1.7 1.9-2.7 3.5-2.2 3.5 0.5 0 2.2-1.6 3.9-3.5 1.8-1.9 2.8-3.4 2.3-3.4-0.5 0-2.3 1.5-4 3.4zm-224.2 324.7c-9.9 17.4-17.7 33.3-26.4 55.3-13.1 33-15.6 42.8-22.5 82-4.8 27.6-4.8 27.6-2.4 24.2 1.9-2.6 1.9-2.1-0.9 20.6-1 7.6-1 7.6 0.9 1.7 0.8-3.2 5.5-18.4 10.1-33.5 4.7-15.1 10.8-39.1 13.8-53.2 10.4-50.2 16.3-69.1 29-94.7 10.6-21.1 10-22-1.6-2.4z"/>
		<path id="Layer" fill-rule="evenodd" class="s0" d="m1186.4 630.9c80.7 3.6 172.8 20.3 191 34.7 9.1 7.3 18.7 26.8 34.4 70.1 13 36.4 22 53.8 37.6 73.4 15.3 19.2 15.8 19.2-16.2 0.2-10.4-6.2-37.1-21.7-59.2-34.2-22.2-12.6-58.6-33.4-80.8-46.1-48.1-27.8-91.2-48.9-119.2-58.7-35.9-12.2-98.2-26.5-145.3-32.8l-16.3-2.3 12-1.2c15.3-1.5 103.6-5 118.9-4.6 6.5 0 25.7 0.8 43.1 1.5zm134.5 61.2c3.4 9.3 21 41.7 23.9 44.3 2.2 2.1 3.9 2.2 7.4 1 2.5-1 11.5-3.4 20.1-5.3 8.4-2 15.4-4.4 15.4-5.3 0-5.7-27.1-26.6-42.1-32.6-7.2-2.8-20.1-6.4-23.5-6.6-2.6-0.1-2.7 0.5-1.2 4.5z"/>
	</g>
</svg>