<svg version="1.2" xmlns="http://www.w3.org/2000/svg" viewBox="0 0 1600 2000" width="1600" height="2000">
	<title>Nový projekt</title>
	<style>
		.s0 { fill: #ffffff } 
	</style>
	<path id="Layer" fill-rule="evenodd" class="s0" d="m787.6 47.5c9.1 3.3 14.1 10 24.6 33.3 21 46.3 43.8 127.5 50 177.3 1 8.5 3.6 28.3 5.9 44.1 2.1 15.5 3.9 30.8 3.9 33.6 0 3.4-3.4 10.6-10.4 21.9-21.3 34-38.4 73-46.1 104.4-8 32.8-5.1 43.5 19.2 69 16.4 17.1 16 17.4-8.1 6.7-19.8-9-40.6-17.3-60.3-24.4-31.6-11.4-63.2-22.6-84.9-30.1-25-8.7-38.1-15.1-57.8-28.2-16.2-11-21-15.6-33.4-32.3-15.3-20.5-24.6-43.8-24.6-61 0-20.9 11.6-61.6 25.7-89.6 18.9-37.5 58-90.5 124.9-169 30.1-35.4 45.4-50.8 54.4-54.9 8.5-3.7 8.7-3.7 17-0.8zm-23.2 83.9c-33.5 37.7-63.3 91.6-79 142.3-12.8 41.3-8.9 59.1 19.6 89.8 6.8 7.3 13.6 15.2 15.1 17.5 2.8 3.9 2.8 3.8 2.8-6.9 0-13.1 3.8-42.4 8.2-65.2 4.4-22.5 9.5-42 24.4-95.1 7.1-24.7 14.8-55 17.2-67.1 2.5-12.2 5.1-23.8 5.9-25.9 1.5-3.3 1.3-3.6-1.4-2.2-1.7 1-7.4 6.7-12.8 12.8z"/>
	<path id="Layer" class="s0" d="m1125.2 105.4c8.7 5.4 9.6 7.5 8.6 20.4-0.5 6.4-6.8 41.7-14 78.2-22.3 112.3-23.7 121.8-23.9 158.5-0.2 14.7-0.3 26.7-0.6 26.7-0.2 0-4.3-3-8.9-6.7-11-8.7-49.7-31.6-65.2-38.9-16.1-7.2-23-10.1-23-9.5 0 0.4 5 3.8 10.9 7.4 11.9 7.5 46.5 33.3 66.5 49.7 37.4 30.6 81.8 74.4 105.9 104.4 33.9 42.1 47.6 69 60.9 119.1 14.9 56.5 29 83.9 52.5 101.4 9 6.8 59.3 38.6 108.1 68.2 14 8.4 37.2 22.6 51.7 31.3 14.4 8.9 37.8 22.5 51.9 30.3 14.3 8.1 25.7 14.8 25.9 15.3 0 0.5-3.9 3.3-8.7 6.2l-8.5 5.4 26.2-1c23.9-0.9 26.7-0.8 32 2.2 3.1 1.8 7 5.4 8.7 8.2 5.7 9.8-1.5 21.4-27.3 43.9-18 15.7-31.3 25.2-35.4 25.2-3.1-0.1-22.7-22.4-25.7-29.2-1-2.4-2.6-11.4-3.6-19.8-1.3-10.3-2.8-16.4-4.7-18.7-4-4.4-46.7-32.2-115.2-74.9-43-26.7-100-63.9-110.5-71.9-24.8-19.3-38.2-42.9-50.6-90.3-8.2-30.5-16.4-51.1-30-75.9-40.4-73.1-135.7-158.5-243.7-217.8-20.2-11.1-28.9-18.2-34.8-28.2-4.1-6.9-12.8-31.9-14.6-41.6-0.8-5.1-0.6-5.4 2.7-4.3 2.1 0.7 20 1.4 39.8 1.5 19.8 0.2 37.5 0.8 39.3 1.5 1.8 0.5 1 0-1.9-1.5-8.4-3.8-32-7.4-58.4-8.8-13.3-0.7-24.4-1.7-24.6-2-1.8-2.1-6.2-28.2-5.1-29.2 0.9-0.6 7.1-3.2 13.8-5.9 20.2-7.5 47.7-21.9 87.4-45.7 43.7-26.1 79.3-48.5 106.8-67.5 16.9-11.6 29.7-18.7 33.4-18.7 0.5 0 3.2 1.3 5.9 3z"/>
	<path id="Layer" fill-rule="evenodd" class="s0" d="m432.2 510.8c-1.7 1.1-18.5 12.5-37.7 25.1-62.5 41.4-100.5 71.6-147.3 117.2-36.3 35-60.7 63.7-82.6 96.6-41.5 62.5-65.1 124.9-71.7 189.3l-0.9 9.9 11.9-21.3c38.9-69.4 115.4-160.8 194.2-232.1 47.6-43.1 118.3-99.5 122-97.2 0.9 0.7 1.3 0.5 0.6-0.6-1-1.8 7.1-8.7 17.9-15.1 3.6-2.1 15.7-11 27-19.5 32.5-24.6 33.9-24.8 3.8-0.7-29.2 23.5-75.1 65.4-91.1 83.3-65.1 72.9-101.2 151.6-113.3 247.9-1.8 14-2.6 34.1-2.6 64.4 0 41 1.3 53.6 3.9 37.4 1.5-9.5 10.5-32.1 16.3-40.8 2.6-4.1 4.2-5.9 3.6-4.3-4.1 13.1-15.6 124.3-15.6 152.4 0 18.9 3.1 53.6 4.9 55.6 0.8 0.8 2.5-3.8 3.9-10.2 12.2-53.4 45.1-108 95.7-158.6 57.1-57 121.2-94.4 199.8-116.7 30.7-8.7 63.4-15.1 112.8-22.3 22.4-3.2 51.6-8 64.7-10.6 62-12.3 93.1-15.8 124.6-14.1 18.2 1 45 4.2 54.4 6.7 8.2 2.1 4.9-0.3-5.8-4.1-5.5-2.1-16.7-7-24.5-11-21.7-10.6-57.4-26.4-74.9-32.7-49.7-18.2-111.2-33.8-149.2-37.7l-12.3-1.4 15.6-1.1c35.9-2.8 101 2.1 143.4 11 57.7 11.9 129 45.9 185.5 88.3 7.9 5.9 17.4 12.3 21 13.9 3.6 1.8 20.5 7.1 37.7 11.5 17 4.6 44.4 12 60.6 16.6 61.3 17.2 92.5 25 111.5 28.6l19.6 3.7-12.3 1.1c-14.7 1.6-75 1.5-83.2 0-4.1-0.8-5.4-0.7-4.6 0.8 1.5 2.3 6.9 4.6 34.6 14.9 11.6 4.5 29.3 11.3 39.3 15.4 58 24 142.3 39.7 181.9 34 16.1-2.3 45.6-10.9 52.8-15.3 10.3-6 5.4-1.3-6.1 6.1-16.4 10.5-32.6 18.3-48.8 23.6-23.6 7.7-35.7 9.2-72.4 9-28.6-0.2-39.1-1-68.9-5.4-46.5-6.9-76.8-8.2-192.5-8.7-94.9-0.5-97.1-0.5-110.7 3.1-45.9 11.8-82.2 30.2-114.5 57.5-17.1 14.5-42.8 49.2-42.8 57.6 0 6.4 17.2 112.1 22.8 140.2 20.8 104.4 44.9 187.5 75 257.2 20.9 48.5 79 167.3 89.7 183.5 4.1 6.3 7.5 11.7 7.5 12.2 0 1.6-12.8-15.4-15.4-20.7-2.9-5.6-4.7-7-3.1-2.5 0.5 1.7-2.9-2.2-7.7-8.5-51.6-68.3-154.4-161.4-218.8-198.3-4.6-2.4-10-5.7-12.3-7.2-2.3-1.3 4.8 6.7 15.6 18 38 39.4 66.9 75.1 84.7 105.1 42.8 71.9 66.7 138.8 82.5 229.1 7.5 42.9 9 50.6 11.4 57.7 1.3 3.4 2 6.2 1.7 6.2-0.4 0-5.8-9.8-11.8-21.8-21.2-40.8-55.6-91.1-87.4-128-35.2-40.6-85.5-91.3-119.6-119.8-95.1-79.8-125.4-112.4-152.9-164.7-45.2-86-60.7-203.4-36.1-275.3 19.4-56.9 58.4-105.2 114.4-142.4 44.1-29.2 92.9-48.7 146.7-58.7 24.6-4.6 100.9-4.1 131.8 0.8 12.6 2 23.1 3.3 23.4 3 1-0.8-25.2-10.2-37.2-13.3-33.9-8.8-95.6-12-126.5-6.4-8.4 1.5-17.4 2.6-19.9 2.6-2.4 0-7 1-10.1 2.3-9.2 3.8-6.6 1.2 3.9-4.1 14.3-7.2 47.4-17.7 69.8-22.2 38.4-7.8 100.8-9.4 123.6-3.3 10.7 2.8 9.8 1.6-2.6-3.6-33.6-13.8-103.8-28.5-169.3-35.9-29.5-3.1-88.5-2.5-110.6 1.6-44 7.9-82.6 23.6-123.3 50.7-63.4 41.9-114.4 103.7-134.5 163.3-16.7 49.5-17.4 125.6-1.3 177.9 17.3 57.5 45.9 97.1 135.8 188.8 64.4 65.7 86.7 92.2 127 151.5 38.2 55.8 50.2 76.6 66.4 114.6 14.8 34.4 27.2 82.3 36.4 138.3 3.9 24.3 10.6 62.6 13.1 73.9 0.5 2.7-1.8-2.3-5.4-10.8-10.3-25.1-14.4-33.6-24.3-50.5-46.5-79.3-106.5-145.2-187.4-206-22.2-16.7-95.4-75.2-111.5-89-15.9-13.7-46.9-43.7-69.6-67.5-36.7-38-61.3-70.8-97.5-129.1-5.8-9.2-10.7-16.4-11.2-15.9-0.5 0.3 0 1.6 0.8 2.8 0.8 1.1 4.1 8.3 7.1 16 12.3 31.3 45 92 67.2 124.6 23.7 34.9 71.7 86.5 105.3 113.4 18.7 14.9 75.4 54.7 84.3 59.3 2.9 1.5 5.4 3.1 5.4 3.5 0 2.3-39-16.6-79.5-38.5-118.2-63.8-202.6-126.4-276.6-205.2-51.7-55.1-92.1-112.5-125.6-178.3-44.7-88.4-65-171.8-64.7-267.2 0.3-67.2 12.3-122.2 39.8-183 54.9-121.6 149.5-209.1 314.8-291.4 22.2-11 43.1-21 46.8-22.1 3.6-1.2 10.1-3.8 14.7-5.9 4.4-2.3 6.9-3.1 5.1-2zm-18.2 93.1c-1.6 1.8-2.6 3.3-2.1 3.3 0.5 0 2.1-1.5 3.7-3.3 1.7-1.8 2.7-3.3 2.2-3.3-0.5 0-2.2 1.5-3.8 3.3zm-213.9 309.7c-9.5 16.6-16.9 31.8-25.2 52.8-12.5 31.5-14.9 40.8-21.5 78.2-4.6 26.4-4.6 26.4-2.3 23.1 1.8-2.5 1.8-2-0.8 19.6-1 7.3-1 7.3 0.8 1.7 0.8-3.1 5.3-17.6 9.7-32 4.4-14.4 10.3-37.3 13.1-50.8 10-47.8 15.6-65.9 27.7-90.3 10.2-20.1 9.5-21-1.5-2.3z"/>
	<path id="Layer" fill-rule="evenodd" class="s0" d="m952 625.4c77 3.4 164.9 19.3 182.3 33.1 8.6 6.8 17.8 25.5 32.7 66.8 12.5 34.8 21 51.3 35.9 70 14.6 18.4 15.1 18.4-15.4 0.2-10-5.9-35.4-20.7-56.5-32.6-21.2-12-55.9-31.8-77-44-45.9-26.5-87.1-46.7-113.8-56-34.2-11.7-93.7-25.3-138.6-31.3l-15.6-2.1 11.5-1.2c14.6-1.5 98.8-4.7 113.4-4.4 6.2 0 24.6 0.8 41.1 1.5zm128.3 58.3c3.3 8.8 20 39.8 22.8 42.3 2.2 1.9 3.8 2.1 7.1 1 2.4-1 10.9-3.3 19.1-5.1 8.1-2 14.8-4.3 14.8-5.1 0-5.4-25.9-25.4-40.2-31.1-6.8-2.7-19.1-6.1-22.4-6.3-2.5-0.1-2.6 0.5-1.2 4.3z"/>
</svg>